<svg width="252" height="57" viewBox="0 0 252 57" fill="none" xmlns="http://www.w3.org/2000/svg">
<g clip-path="url(#clip0_1_3)">
<path d="M40.1992 14.916H44.418V25.3047H55.1758V14.916H59.3945V40H55.1758V29.2422H44.418V40H40.1992V14.916ZM63.3862 34.7441C63.3862 33.6895 63.5385 32.7988 63.8432 32.0723C64.1596 31.3457 64.5815 30.7598 65.1088 30.3145C65.6479 29.8691 66.2748 29.5469 66.9897 29.3477C67.7162 29.1484 68.4955 29.0488 69.3276 29.0488C70.1713 29.0488 70.933 29.0957 71.6127 29.1895C72.3041 29.2832 72.9018 29.3887 73.4057 29.5059C73.9799 29.6348 74.5014 29.7812 74.9702 29.9453V28.2227C74.9702 27.7891 74.9526 27.4258 74.9174 27.1328C74.894 26.8281 74.8471 26.5645 74.7768 26.3418C74.7065 26.1191 74.6069 25.9316 74.478 25.7793C74.3608 25.627 74.2143 25.4805 74.0385 25.3398C73.6635 25.0703 73.1479 24.877 72.4916 24.7598C71.8354 24.6426 70.9799 24.584 69.9252 24.584C69.2573 24.584 68.6069 24.6074 67.9741 24.6543C67.353 24.6895 66.7963 24.7363 66.3041 24.7949C65.7299 24.8535 65.185 24.918 64.6694 24.9883V22.0703C65.1381 21.8828 65.7182 21.7129 66.4096 21.5605C66.9955 21.4316 67.728 21.3145 68.6069 21.209C69.4858 21.0918 70.5287 21.0332 71.7358 21.0332C72.5444 21.0332 73.2592 21.0684 73.8803 21.1387C74.5131 21.1973 75.0698 21.3027 75.5502 21.4551C76.0307 21.6074 76.4526 21.8066 76.8159 22.0527C77.1909 22.2988 77.5248 22.6035 77.8178 22.9668C78.0639 23.2715 78.269 23.5938 78.433 23.9336C78.5971 24.2734 78.7319 24.6719 78.8373 25.1289C78.9428 25.5859 79.0131 26.1133 79.0483 26.7109C79.0952 27.2969 79.1186 27.9824 79.1186 28.7676V40H75.5854L75.269 38.6289C74.7534 38.9922 74.185 39.3145 73.5639 39.5957C73.0248 39.8301 72.392 40.0469 71.6655 40.2461C70.9506 40.4453 70.1596 40.5449 69.2924 40.5449C68.2377 40.5449 67.3354 40.4395 66.5854 40.2285C65.8354 40.0176 65.2202 39.6836 64.7397 39.2266C64.2709 38.7695 63.9252 38.1719 63.7026 37.4336C63.4916 36.6953 63.3862 35.7988 63.3862 34.7441ZM67.6577 34.7441C67.6577 35.2598 67.7221 35.6699 67.851 35.9746C67.9799 36.2793 68.1674 36.5137 68.4135 36.6777C68.6596 36.8301 68.9584 36.9297 69.31 36.9766C69.6733 37.0234 70.0834 37.0469 70.5405 37.0469C71.1381 37.0469 71.7006 36.9941 72.228 36.8887C72.767 36.7715 73.2416 36.6484 73.6518 36.5195C74.1205 36.3672 74.56 36.1914 74.9702 35.9922V32.7754C74.5952 32.7051 74.1909 32.6406 73.7573 32.582C73.3823 32.5234 72.9545 32.4766 72.4741 32.4414C72.0053 32.3945 71.5073 32.3711 70.9799 32.3711C70.394 32.3711 69.8901 32.4004 69.4682 32.459C69.058 32.5059 68.7182 32.6172 68.4487 32.793C68.1791 32.957 67.9799 33.1973 67.851 33.5137C67.7221 33.8184 67.6577 34.2285 67.6577 34.7441ZM83.62 12.6836H87.786V22.2461C88.3368 22.0117 88.9345 21.7949 89.579 21.5957C90.1415 21.4316 90.7977 21.2793 91.5477 21.1387C92.2977 20.998 93.1122 20.9277 93.9911 20.9277C95.2333 20.9277 96.2587 21.1504 97.0673 21.5957C97.8876 22.0293 98.538 22.668 99.0184 23.5117C99.4989 24.3438 99.8329 25.3633 100.02 26.5703C100.22 27.7656 100.319 29.125 100.319 30.6484C100.319 32.4766 100.173 34.0176 99.8798 35.2715C99.5868 36.5254 99.1649 37.5449 98.6141 38.3301C98.0634 39.1152 97.3778 39.6777 96.5575 40.0176C95.7489 40.3691 94.829 40.5449 93.7977 40.5449C92.9071 40.5449 92.0751 40.4395 91.3016 40.2285C90.5399 40.0293 89.872 39.8008 89.2977 39.543C88.6298 39.2383 88.0204 38.8984 87.4696 38.5234L87.2235 40H83.62V12.6836ZM87.786 35.8164C88.161 36.0039 88.5887 36.168 89.0692 36.3086C89.4794 36.4375 89.9716 36.5547 90.5458 36.6602C91.12 36.7539 91.7645 36.8008 92.4794 36.8008C93.1825 36.8008 93.7567 36.7012 94.202 36.502C94.6473 36.291 94.993 35.957 95.2391 35.5C95.497 35.0312 95.6727 34.4219 95.7665 33.6719C95.872 32.9102 95.9247 31.9727 95.9247 30.8594C95.9247 29.6172 95.8837 28.5977 95.8016 27.8008C95.7196 26.9922 95.5438 26.3535 95.2743 25.8848C95.0165 25.416 94.6298 25.0938 94.1141 24.918C93.6102 24.7305 92.9305 24.6367 92.0751 24.6367C91.536 24.6367 91.0145 24.6719 90.5106 24.7422C90.0067 24.8125 89.5497 24.8887 89.1395 24.9707C88.6708 25.0762 88.2196 25.1875 87.786 25.3047V35.8164ZM106.174 18.3086C105.694 18.3086 105.295 18.2734 104.979 18.2031C104.674 18.1328 104.422 18.0098 104.223 17.834C104.035 17.6582 103.901 17.418 103.819 17.1133C103.748 16.8086 103.713 16.416 103.713 15.9355C103.713 15.4551 103.748 15.0625 103.819 14.7578C103.901 14.4414 104.035 14.1895 104.223 14.002C104.422 13.8145 104.674 13.6855 104.979 13.6152C105.295 13.5449 105.694 13.5098 106.174 13.5098C106.655 13.5098 107.047 13.5449 107.352 13.6152C107.668 13.6855 107.92 13.8145 108.108 14.002C108.295 14.1895 108.424 14.4414 108.494 14.7578C108.565 15.0625 108.6 15.4551 108.6 15.9355C108.6 16.416 108.565 16.8086 108.494 17.1133C108.424 17.418 108.295 17.6582 108.108 17.834C107.92 18.0098 107.668 18.1328 107.352 18.2031C107.047 18.2734 106.655 18.3086 106.174 18.3086ZM104.082 21.4551H108.266V40H104.082V21.4551ZM114.244 24.918H111.502V21.4551H114.244V17.5352L118.41 16.6035V21.4551H123.086V24.918H118.41V34.8848C118.41 35.3184 118.439 35.6758 118.498 35.957C118.568 36.2383 118.685 36.4668 118.849 36.6426C119.025 36.8066 119.265 36.9238 119.57 36.9941C119.886 37.0527 120.291 37.082 120.783 37.082C121.24 37.082 121.65 37.0762 122.013 37.0645C122.388 37.041 122.705 37.0176 122.963 36.9941C123.267 36.9707 123.537 36.9414 123.771 36.9062V39.6836C123.361 39.8477 122.922 39.9941 122.453 40.123C122.043 40.2285 121.562 40.3223 121.011 40.4043C120.461 40.498 119.857 40.5449 119.201 40.5449C118.287 40.5449 117.513 40.457 116.881 40.2812C116.26 40.1055 115.75 39.8418 115.351 39.4902C114.965 39.127 114.683 38.6758 114.508 38.1367C114.332 37.5859 114.244 36.9473 114.244 36.2207V24.918ZM126.972 14.916H136.921C137.46 14.916 138.005 14.957 138.556 15.0391C139.107 15.1211 139.634 15.2793 140.138 15.5137C140.642 15.7363 141.111 16.041 141.544 16.4277C141.978 16.8145 142.359 17.3125 142.687 17.9219C143.015 18.5195 143.267 19.2461 143.443 20.1016C143.63 20.957 143.724 21.959 143.724 23.1074C143.724 24.2559 143.624 25.2578 143.425 26.1133C143.226 26.957 142.956 27.6777 142.616 28.2754C142.277 28.873 141.878 29.3594 141.421 29.7344C140.964 30.1094 140.478 30.4082 139.962 30.6309C139.446 30.8418 138.913 30.9883 138.363 31.0703C137.823 31.1406 137.29 31.1758 136.763 31.1758H131.191V40H126.972V14.916ZM136.271 27.2559C136.904 27.2559 137.413 27.1504 137.8 26.9395C138.198 26.7285 138.509 26.4355 138.732 26.0605C138.966 25.6855 139.124 25.2461 139.206 24.7422C139.288 24.2383 139.329 23.6934 139.329 23.1074C139.329 22.5332 139.288 21.9883 139.206 21.4727C139.124 20.957 138.966 20.5059 138.732 20.1191C138.509 19.7207 138.198 19.4102 137.8 19.1875C137.413 18.9531 136.904 18.8359 136.271 18.8359H131.191V27.2559H136.271ZM146.626 21.4551H150.792V34.0938C150.792 34.5859 150.821 35.002 150.88 35.3418C150.95 35.6816 151.09 35.9629 151.301 36.1855C151.512 36.3965 151.817 36.5547 152.215 36.6602C152.614 36.7539 153.147 36.8008 153.815 36.8008C154.518 36.8008 155.157 36.7656 155.731 36.6953C156.305 36.6133 156.798 36.5254 157.208 36.4316C157.688 36.3145 158.122 36.1855 158.508 36.0449V21.4551H162.674V40H159.616L159.124 38.6289C158.467 38.9922 157.758 39.3145 156.997 39.5957C156.34 39.8301 155.579 40.0469 154.712 40.2461C153.856 40.4453 152.948 40.5449 151.987 40.5449C150.171 40.5449 148.823 40.0645 147.944 39.1035C147.065 38.1309 146.626 36.6191 146.626 34.5684V21.4551ZM167.088 12.6836H171.254V40H167.088V12.6836ZM174.789 36.4316C175.304 36.5488 175.878 36.6543 176.511 36.748C177.05 36.8301 177.683 36.9004 178.41 36.959C179.148 37.0176 179.957 37.0469 180.835 37.0469C181.796 37.0469 182.558 37.0117 183.121 36.9414C183.683 36.8711 184.105 36.7539 184.386 36.5898C184.679 36.4141 184.867 36.1797 184.949 35.8867C185.031 35.5938 185.072 35.2246 185.072 34.7793C185.072 34.5449 185.054 34.334 185.019 34.1465C184.996 33.9473 184.925 33.7715 184.808 33.6191C184.703 33.4551 184.539 33.3203 184.316 33.2148C184.105 33.0977 183.818 33.0098 183.455 32.9512L179.57 32.2305C178.679 32.0781 177.929 31.873 177.32 31.6152C176.71 31.3574 176.218 31.0176 175.843 30.5957C175.48 30.1621 175.216 29.6348 175.052 29.0137C174.9 28.3809 174.824 27.6133 174.824 26.7109C174.824 24.7656 175.468 23.3184 176.757 22.3691C178.058 21.4082 179.91 20.9277 182.312 20.9277C183.156 20.9277 183.929 20.9805 184.632 21.0859C185.347 21.1797 185.968 21.291 186.496 21.4199C187.105 21.5605 187.662 21.7188 188.166 21.8945V24.8828C187.603 24.7891 187.017 24.707 186.408 24.6367C185.88 24.5781 185.289 24.5195 184.632 24.4609C183.988 24.4023 183.332 24.373 182.664 24.373C181.902 24.373 181.269 24.4082 180.765 24.4785C180.261 24.5371 179.863 24.6426 179.57 24.7949C179.277 24.9473 179.072 25.1465 178.955 25.3926C178.837 25.627 178.779 25.9258 178.779 26.2891C178.779 26.5703 178.802 26.8223 178.849 27.0449C178.896 27.2676 178.996 27.4668 179.148 27.6426C179.3 27.8184 179.511 27.9707 179.781 28.0996C180.05 28.2285 180.414 28.334 180.871 28.416L184.896 29.1719C185.681 29.3242 186.343 29.5234 186.882 29.7695C187.433 30.0156 187.878 30.3496 188.218 30.7715C188.558 31.1934 188.804 31.7324 188.957 32.3887C189.109 33.0332 189.185 33.8301 189.185 34.7793C189.185 35.6816 189.091 36.4902 188.904 37.2051C188.728 37.9199 188.365 38.5234 187.814 39.0156C187.263 39.5078 186.484 39.8828 185.476 40.1406C184.468 40.4102 183.138 40.5449 181.486 40.5449C180.572 40.5449 179.71 40.4805 178.902 40.3516C178.093 40.2344 177.384 40.0996 176.775 39.9473C176.06 39.7715 175.398 39.5723 174.789 39.3496V36.4316ZM191.173 30.5254C191.173 28.5918 191.425 27.0039 191.929 25.7617C192.433 24.5195 193.101 23.541 193.933 22.8262C194.765 22.1113 195.714 21.6191 196.78 21.3496C197.847 21.0684 198.942 20.9277 200.067 20.9277C201.485 20.9277 202.657 21.1211 203.583 21.5078C204.52 21.8945 205.265 22.4395 205.815 23.1426C206.366 23.834 206.753 24.666 206.976 25.6387C207.198 26.6113 207.31 27.6836 207.31 28.8555C207.31 29.4062 207.286 29.9746 207.239 30.5605C207.204 31.1465 207.151 31.75 207.081 32.3711H195.462C195.474 33.2031 195.561 33.9062 195.726 34.4805C195.901 35.043 196.183 35.5059 196.569 35.8691C196.968 36.2207 197.489 36.4785 198.134 36.6426C198.79 36.7949 199.604 36.8711 200.577 36.8711C201.397 36.8711 202.165 36.8535 202.88 36.8184C203.595 36.7715 204.222 36.7188 204.761 36.6602C205.394 36.6016 205.968 36.5254 206.483 36.4316V39.3496C205.886 39.5723 205.235 39.7715 204.532 39.9473C203.935 40.0996 203.237 40.2344 202.44 40.3516C201.644 40.4805 200.794 40.5449 199.892 40.5449C198.509 40.5449 197.278 40.3691 196.2 40.0176C195.122 39.6777 194.208 39.1152 193.458 38.3301C192.72 37.5332 192.151 36.4961 191.753 35.2188C191.366 33.9414 191.173 32.377 191.173 30.5254ZM203.46 29.2422V28.5742C203.46 27.8711 203.413 27.2617 203.319 26.7461C203.237 26.2188 203.061 25.7852 202.792 25.4453C202.522 25.1055 202.142 24.8535 201.649 24.6895C201.157 24.5254 200.501 24.4434 199.681 24.4434C198.802 24.4434 198.081 24.5488 197.519 24.7598C196.968 24.959 196.534 25.2637 196.218 25.6738C195.913 26.0723 195.702 26.5703 195.585 27.168C195.479 27.7656 195.427 28.457 195.427 29.2422H203.46Z" fill="#5E15F5"/>
<path d="M225.328 11.4844C225.328 11.1719 225.438 10.9062 225.656 10.6875C225.875 10.4531 226.133 10.3359 226.43 10.3359C227.133 10.3359 227.984 10.7266 228.984 11.5078C230 12.2734 231.086 13.375 232.242 14.8125C234.008 17.0156 235.336 19.3359 236.227 21.7734C237.117 24.2109 237.562 26.75 237.562 29.3906C237.562 32.2812 237.023 35.0625 235.945 37.7344C234.867 40.4062 233.266 42.9219 231.141 45.2812C230.234 46.2812 229.367 47.0469 228.539 47.5781C227.711 48.125 226.992 48.3984 226.383 48.3984C226.102 48.3984 225.852 48.2891 225.633 48.0703C225.43 47.8672 225.328 47.6094 225.328 47.2969C225.328 46.9531 225.711 46.1562 226.477 44.9062C227.039 43.9844 227.477 43.2344 227.789 42.6562C229.055 40.3125 229.969 38.0859 230.531 35.9766C231.094 33.8672 231.375 31.6719 231.375 29.3906C231.375 27.3438 231.148 25.3594 230.695 23.4375C230.242 21.5156 229.547 19.6016 228.609 17.6953C228.094 16.6641 227.414 15.4609 226.57 14.0859C225.742 12.6953 225.328 11.8281 225.328 11.4844Z" fill="#561BEB" fill-opacity="0.4"/>
<path d="M21.6719 46.5156C21.6719 46.8281 21.5625 47.0938 21.3438 47.3125C21.125 47.5469 20.8672 47.6641 20.5703 47.6641C19.8672 47.6641 19.0156 47.2734 18.0156 46.4922C17 45.7266 15.9141 44.625 14.7578 43.1875C12.9922 40.9844 11.6641 38.6641 10.7734 36.2266C9.88281 33.7891 9.4375 31.25 9.4375 28.6094C9.4375 25.7188 9.97656 22.9375 11.0547 20.2656C12.1328 17.5938 13.7344 15.0781 15.8594 12.7188C16.7656 11.7188 17.6328 10.9531 18.4609 10.4219C19.2891 9.875 20.0078 9.60156 20.6172 9.60156C20.8984 9.60156 21.1484 9.71094 21.3672 9.92969C21.5703 10.1328 21.6719 10.3906 21.6719 10.7031C21.6719 11.0469 21.2891 11.8438 20.5234 13.0938C19.9609 14.0156 19.5234 14.7656 19.2109 15.3438C17.9453 17.6875 17.0313 19.9141 16.4688 22.0234C15.9063 24.1328 15.625 26.3281 15.625 28.6094C15.625 30.6562 15.8516 32.6406 16.3047 34.5625C16.7578 36.4844 17.4531 38.3984 18.3906 40.3047C18.9062 41.3359 19.5859 42.5391 20.4297 43.9141C21.2578 45.3047 21.6719 46.1719 21.6719 46.5156Z" fill="#561BEB" fill-opacity="0.4"/>
<path d="M216.719 17.6562C216.719 17.4479 216.792 17.2708 216.938 17.125C217.083 16.9688 217.255 16.8906 217.453 16.8906C217.922 16.8906 218.49 17.151 219.156 17.6719C219.833 18.1823 220.557 18.9167 221.328 19.875C222.505 21.3438 223.391 22.8906 223.984 24.5156C224.578 26.1406 224.875 27.8333 224.875 29.5938C224.875 31.5208 224.516 33.375 223.797 35.1562C223.078 36.9375 222.01 38.6146 220.594 40.1875C219.99 40.8542 219.411 41.3646 218.859 41.7188C218.307 42.0833 217.828 42.2656 217.422 42.2656C217.234 42.2656 217.068 42.1927 216.922 42.0469C216.786 41.9115 216.719 41.7396 216.719 41.5312C216.719 41.3021 216.974 40.7708 217.484 39.9375C217.859 39.3229 218.151 38.8229 218.359 38.4375C219.203 36.875 219.812 35.3906 220.188 33.9844C220.562 32.5781 220.75 31.1146 220.75 29.5938C220.75 28.2292 220.599 26.9062 220.297 25.625C219.995 24.3438 219.531 23.0677 218.906 21.7969C218.562 21.1094 218.109 20.3073 217.547 19.3906C216.995 18.4635 216.719 17.8854 216.719 17.6562Z" fill="#561BEB" fill-opacity="0.4"/>
<path d="M29.2812 41.3438C29.2812 41.5521 29.2083 41.7292 29.0625 41.875C28.9167 42.0312 28.7448 42.1094 28.5469 42.1094C28.0781 42.1094 27.5104 41.849 26.8438 41.3281C26.1667 40.8177 25.4427 40.0833 24.6719 39.125C23.4948 37.6562 22.6094 36.1094 22.0156 34.4844C21.4219 32.8594 21.125 31.1667 21.125 29.4062C21.125 27.4792 21.4844 25.625 22.2031 23.8438C22.9219 22.0625 23.9896 20.3854 25.4063 18.8125C26.0104 18.1458 26.5885 17.6354 27.1406 17.2812C27.6927 16.9167 28.1719 16.7344 28.5781 16.7344C28.7656 16.7344 28.9323 16.8073 29.0781 16.9531C29.2135 17.0885 29.2813 17.2604 29.2813 17.4688C29.2813 17.6979 29.026 18.2292 28.5156 19.0625C28.1406 19.6771 27.849 20.1771 27.6406 20.5625C26.7969 22.125 26.1875 23.6094 25.8125 25.0156C25.4375 26.4219 25.25 27.8854 25.25 29.4062C25.25 30.7708 25.401 32.0938 25.7031 33.375C26.0052 34.6562 26.4688 35.9323 27.0938 37.2031C27.4375 37.8906 27.8906 38.6927 28.4531 39.6094C29.0052 40.5365 29.2812 41.1146 29.2812 41.3438Z" fill="#561BEB" fill-opacity="0.4"/>
</g>
<defs>
<clipPath id="clip0_1_3">
<rect width="252" height="57" fill="white"/>
</clipPath>
</defs>
</svg>
